<?xml version="1.0" encoding="iso-8859-1"?>
<!-- Generator: Adobe Illustrator 19.0.0, SVG Export Plug-In . SVG Version: 6.00 Build 0)  -->
<svg version="1.1" id="Layer_1" xmlns="http://www.w3.org/2000/svg" xmlns:xlink="http://www.w3.org/1999/xlink" x="0px" y="0px"
	 viewBox="0 0 512 512" style="enable-background:new 0 0 512 512;" xml:space="preserve">
<g>
	<g>
		<g>
			<path d="M256,106.667c-82.344,0-149.333,66.99-149.333,149.333S173.656,405.333,256,405.333S405.333,338.344,405.333,256
				S338.344,106.667,256,106.667z M256,384c-70.583,0-128-57.417-128-128s57.417-128,128-128s128,57.417,128,128
				S326.583,384,256,384z"/>
			<path d="M256,85.333c5.896,0,10.667-4.771,10.667-10.667v-64C266.667,4.771,261.896,0,256,0s-10.667,4.771-10.667,10.667v64
				C245.333,80.563,250.104,85.333,256,85.333z"/>
			<path d="M256,426.667c-5.896,0-10.667,4.771-10.667,10.667v64c0,5.896,4.771,10.667,10.667,10.667s10.667-4.771,10.667-10.667
				v-64C266.667,431.438,261.896,426.667,256,426.667z"/>
			<path d="M120.24,135.323c2.083,2.083,4.813,3.125,7.542,3.125s5.458-1.042,7.542-3.125c4.167-4.167,4.167-10.917,0-15.083
				l-45.26-45.26c-4.167-4.167-10.917-4.167-15.083,0c-4.167,4.167-4.167,10.917,0,15.083L120.24,135.323z"/>
			<path d="M391.76,376.677c-4.167-4.167-10.917-4.167-15.083,0c-4.167,4.167-4.167,10.917,0,15.083l45.26,45.26
				c2.083,2.083,4.813,3.125,7.542,3.125s5.458-1.042,7.542-3.125c4.167-4.167,4.167-10.917,0-15.083L391.76,376.677z"/>
			<path d="M85.333,256c0-5.896-4.771-10.667-10.667-10.667h-64C4.771,245.333,0,250.104,0,256s4.771,10.667,10.667,10.667h64
				C80.563,266.667,85.333,261.896,85.333,256z"/>
			<path d="M501.333,245.333h-64c-5.896,0-10.667,4.771-10.667,10.667s4.771,10.667,10.667,10.667h64
				c5.896,0,10.667-4.771,10.667-10.667S507.229,245.333,501.333,245.333z"/>
			<path d="M120.24,376.677l-45.26,45.26c-4.167,4.167-4.167,10.917,0,15.083c2.083,2.083,4.813,3.125,7.542,3.125
				c2.729,0,5.458-1.042,7.542-3.125l45.26-45.26c4.167-4.167,4.167-10.917,0-15.083C131.156,372.51,124.406,372.51,120.24,376.677z
				"/>
			<path d="M384.219,138.448c2.729,0,5.458-1.042,7.542-3.125l45.26-45.26c4.167-4.167,4.167-10.917,0-15.083
				c-4.167-4.167-10.917-4.167-15.083,0l-45.26,45.26c-4.167,4.167-4.167,10.917,0,15.083
				C378.76,137.406,381.49,138.448,384.219,138.448z"/>
		</g>
	</g>
</g>
<g>
</g>
<g>
</g>
<g>
</g>
<g>
</g>
<g>
</g>
<g>
</g>
<g>
</g>
<g>
</g>
<g>
</g>
<g>
</g>
<g>
</g>
<g>
</g>
<g>
</g>
<g>
</g>
<g>
</g>
</svg>
